<svg xmlns="http://www.w3.org/2000/svg" viewBox="-290 382 30 30"><path d="M-264.8 405.2l-2.7-2.7c.5-.6.8-1.4.8-2.3 0-2.1-1.7-3.8-3.8-3.8-2.1 0-3.8 1.7-3.8 3.8s1.7 3.8 3.8 3.8c.9 0 1.6-.3 2.3-.8l2.7 2.7.7-.7zm-5.7-2.2c-1.5 0-2.8-1.2-2.8-2.8 0-1.5 1.2-2.8 2.8-2.8 1.5 0 2.8 1.2 2.8 2.8.1 1.6-1.2 2.8-2.8 2.8z" fill="#f90"/><path d="M-266.2 389.5v6.5h1v-6.5c0-.7-.8-1.5-1.5-1.5h-17c-.7 0-1.5.8-1.5 1.5v11c0 .7.8 1.5 1.5 1.5h7.5v-1h-7.5c-.1 0-.5-.4-.5-.5v-11l8.8 5.1c.1 0 .2.1.3.1.1 0 .2 0 .3-.1l8.6-5.1zm-8.9 4.3l-8-4.6h15.7l-7.7 4.6z" fill="#284661"/></svg>