<svg xmlns="http://www.w3.org/2000/svg" viewBox="-290 382 30 30"><g transform="translate(1 1)"><circle cx="-276" cy="399" r="1" fill="#1a82e2"/><path d="M-265.5 403.5h-21v-4.8c0-5.6 4.9-10.2 11-10.2 5.3 0 10 4.8 10 10.2v4.8zm-20-1h19v-3.8c0-4.9-4.2-9.2-9-9.2-5.5 0-10 4.1-10 9.2v3.8z" fill="#284661"/><path d="M-283 399c.6 0 1 .2 1 .5s-.4.5-1 .5-1-.2-1-.5.4-.5 1-.5zm.5-3c.3 0 .5.2.5.5s-.2.5-.5.5-.5-.2-.5-.5.2-.5.5-.5zm2-2c.3 0 .5.2.5.5s-.2.5-.5.5-.5-.2-.5-.5.2-.5.5-.5zm2-2c.3 0 .5.2.5.5s-.2.5-.5.5-.5-.2-.5-.5.2-.5.5-.5zm5 0c.3 0 .5.2.5.5s-.2.5-.5.5-.5-.2-.5-.5.2-.5.5-.5zm4 4c.3 0 .5.2.5.5s-.2.5-.5.5-.5-.2-.5-.5.2-.5.5-.5zm.5 3c.6 0 1 .2 1 .5s-.4.5-1 .5-1-.2-1-.5.4-.5 1-.5zm-7-8c.6 0 1 .4 1 1s-.4 1-1 1-1-.4-1-1 .4-1 1-1z" fill="#fdd835"/><path fill="#ff5722" d="M-274.72 398.387l-.708-.707 4.103-4.1.707.707z"/></g></svg>