<svg width="19" height="22" viewBox="0 0 19 22" xmlns="http://www.w3.org/2000/svg"><title>experiments-icon</title><g fill="none" fill-rule="evenodd"><path d="M-5-4h30v30H-5z"/><g transform="translate(1 1)"><path stroke="#7F90A0" stroke-linejoin="round" d="M6.287 14.167v2.083h5.03v-2.083M7.125 16.25h3.353v1.667H7.125z"/><path d="M8.801 17.917v1.666" stroke="#7F90A0" stroke-linecap="round" stroke-linejoin="round"/><path d="M9.22 14.167l1.07-4.604c.11-.476.536-.813 1.026-.813.464 0 .838.373.838.833a.835.835 0 0 1-.838.834H6.287a.835.835 0 0 1-.838-.834c0-.46.374-.833.838-.833.49 0 .916.337 1.027.813l1.068 4.604" stroke="#FDD835" stroke-linecap="round" stroke-linejoin="round"/><ellipse stroke="#F90" cx="8.801" cy="8.75" rx="5.868" ry="5.833"/><path d="M8.801.417v.833m5.928 1.607l-.593.59m3.048 5.303h-.838m-1.617 5.893l-.593-.59M2.874 2.857l.593.59M.42 8.75h.837m1.617 5.893l.593-.59" stroke="#F90" stroke-linecap="round" stroke-linejoin="round"/></g></g></svg>