<svg viewBox="0 0 30 30" xmlns="http://www.w3.org/2000/svg"><g fill="none" fill-rule="evenodd"><path d="M8 18.439c0 2.226 1.25 4.092 3.297 5.002a.5.5 0 1 0 .406-.913C10.012 21.776 9 20.264 9 18.438v-5.454a.5.5 0 1 0-1 0v5.455z" fill="#B71C1C"/><path d="M19 15.875c0 .621-.672 1.125-1.5 1.125H17v-3h.5c.828 0 1.5.504 1.5 1.125v.75z" fill="#2196F3"/><path d="M7 12c-1 0-2 .673-2 2v2c0 1.327.937 2 2 2h1c6.234.25 5.85 2.622 9 4V9c-3.144 1.375-2.763 2.75-9 3H7z" stroke="#284661" stroke-linecap="round" stroke-linejoin="round"/><path d="M18.828 10.031a7.477 7.477 0 0 1 2.197 5.303c0 2.071-.84 3.946-2.197 5.303" stroke="#7B1FA2" stroke-linecap="round"/><path d="M21.14 7.016a11.464 11.464 0 0 1 3.369 8.132c0 3.176-1.287 6.05-3.368 8.132" stroke="#DEA7E8" stroke-linecap="round"/></g></svg>