<svg xmlns="http://www.w3.org/2000/svg" viewBox="-290 382 30 30"><path d="M-269.6 395.9c-2.5 0-4.6 2.1-4.6 4.6s2.1 4.6 4.6 4.6 4.6-2.1 4.6-4.6-2.1-4.6-4.6-4.6zm-3.6 4.6c0-2 1.6-3.6 3.6-3.6.8 0 1.5.3 2.1.7l-5 5c-.4-.6-.7-1.3-.7-2.1zm3.6 3.6c-.8 0-1.5-.3-2.1-.7l5-5c.5.6.7 1.3.7 2.1-.1 2-1.8 3.6-3.6 3.6z" fill="#e3471b"/><path d="M-266.5 388.9h-17c-.7 0-1.5.8-1.5 1.5v11c0 .7.8 1.5 1.5 1.5h7.5v-1h-7.5c-.1 0-.5-.4-.5-.5v-11l8.8 5.1c.1 0 .2.1.3.1.1 0 .2 0 .3-.1l8.7-5.2v4.5h1v-4.5c-.1-.5-.9-1.4-1.6-1.4zm-8.4 5.7l-8-4.6h15.7l-7.7 4.6z" fill="#284661"/></svg>