<svg xmlns="http://www.w3.org/2000/svg" viewBox="-290 382 30 30"><path d="M-266 387.5h-18c-.3 0-.5.2-.5.5v18c0 .3.2.5.5.5h18c.3 0 .5-.2.5-.5v-18c0-.3-.2-.5-.5-.5zm-.5 18h-17v-17h17v17z" fill="#284661"/><path fill="#284661" d="M-270 390h1v6h-1zm0 8h1v1h-1zm-10-8h1v4h-1zm0 6h1v3h-1zm5-6h1v1h-1zm0 3h1v6h-1z"/><path fill="#4cb04f" d="M-279 396h2v-2h-5v2h2z"/><path fill="#8ac24a" d="M-274 393h2v-2h-5v2h2z"/><path fill="#cbdb39" d="M-272 396v2h5v-2h-3z"/><path d="M-269.4 401.1c-1 0-1.8.8-1.8 1.8s.8 1.8 1.8 1.8 1.8-.8 1.8-1.8-.8-1.8-1.8-1.8zm0 2.6c-.4 0-.8-.3-.8-.8s.3-.8.8-.8.8.3.8.8-.4.8-.8.8z" fill="#00bcd4"/><path d="M-274.4 401.1c-1 0-1.8.8-1.8 1.8s.8 1.8 1.8 1.8 1.7-.8 1.7-1.8-.8-1.8-1.7-1.8zm0 2.6c-.4 0-.8-.3-.8-.8s.3-.8.8-.8c.4 0 .7.3.7.8s-.3.8-.7.8z" fill="#2196f3"/><path d="M-279.4 401.1c-1 0-1.8.8-1.8 1.8s.8 1.8 1.8 1.8 1.8-.8 1.8-1.8-.9-1.8-1.8-1.8zm0 2.6c-.4 0-.8-.3-.8-.8s.3-.8.8-.8.8.3.8.8-.4.8-.8.8z" fill="#303f9f"/></svg>