<svg xmlns="http://www.w3.org/2000/svg" viewBox="-300 382 30 30"><path d="M-292 402h-2v4h2v-4z" fill="#ff4081"/><path d="M-287 398h-2v8h2v-8z" fill="#dea7e8"/><path d="M-282 400h-2v6h2v-6z" fill="#7c4dff"/><path d="M-277 394h-2v12h2v-12z" fill="#7b1fa2"/><path fill="#284661" d="M-295 406h20v1h-20z"/><path d="M-291 396c0 .6-.4 1-1 1s-1-.4-1-1 .4-1 1-1 1 .4 1 1zm4-4c0 .6-.4 1-1 1s-1-.4-1-1 .4-1 1-1 1 .4 1 1zm5 2c0 .6-.4 1-1 1s-1-.4-1-1 .4-1 1-1 1 .4 1 1zm5-6c0 .6-.4 1-1 1s-1-.4-1-1 .4-1 1-1 1 .4 1 1z" fill="#284561"/></svg>