<svg xmlns="http://www.w3.org/2000/svg" viewBox="-299.5 381.5 30 30"><path d="M-282.8 403.2h6.7l-3.3-6.7-3.4 6.7zm3.3-.7c-.2 0-.4-.2-.4-.4s.2-.4.4-.4.4.2.4.4c0 .3-.2.4-.4.4zm.5-1.5h-1v-2.3h1v2.3zm-13.9-12l8 4.7 7.7-4.7z" fill="none"/><path d="M-274.9 403.4l-4.2-8.3c-.2-.3-.7-.3-.9 0l-4.2 8.3c-.1.2-.1.3 0 .5s.3.2.4.2h8.3c.2 0 .3-.1.4-.2.3-.1.3-.3.2-.5zm-7.9-.2l3.3-6.7 3.3 6.7h-6.6z" fill="#7b1fa2"/><path fill="#7b1fa2" d="M-280 398.7h1v2.3h-1z"/><circle cx="-279.5" cy="402.1" r=".4" fill="#7b1fa2"/><path d="M-276 389.5v6.5h1v-6.5c0-.7-.8-1.5-1.5-1.5h-17c-.7 0-1.5.8-1.5 1.5v11c0 .7.8 1.5 1.5 1.5h7.5v-1h-7.5c-.1 0-.5-.4-.5-.5v-11l8.8 5.1c.1 0 .2.1.3.1.1 0 .2 0 .3-.1l8.6-5.1zm-8.9 4.2l-8-4.6h15.7l-7.7 4.6z" fill="#284661"/></svg>